<svg width="120" height="140" viewBox="0 0 120 140" fill="none" xmlns="http://www.w3.org/2000/svg">
<g filter="url(#filter0_i_89_33)">
<path d="M4.36224 0C2.01661 0 0.174388 2.00905 0.37723 4.3459L10.6993 123.262C10.8428 124.915 11.991 126.307 13.5857 126.763L58.8303 139.686C59.5478 139.891 60.3085 139.892 61.0261 139.687L106.413 126.74C108.008 126.285 109.157 124.892 109.301 123.24L119.623 4.34597C119.826 2.00909 117.983 0 115.638 0H4.36224ZM91.0762 101.911C90.9325 103.564 89.7831 104.957 88.1874 105.411L61.1217 113.124C60.4029 113.329 59.6411 113.328 58.9226 113.122L31.8974 105.371C30.3047 104.914 29.1585 103.523 29.0152 101.872L27.521 84.6584C27.3181 82.3216 29.1604 80.3125 31.506 80.3125H38.5568C40.632 80.3125 42.3626 81.8995 42.5419 83.967L43.0583 89.9234C43.2019 91.5796 44.3549 92.9743 45.9545 93.4268L60.0112 97.4033C60.0319 97.4091 60.049 97.4237 60.058 97.4432V97.4432C60.0732 97.476 60.1099 97.4929 60.1447 97.4832L74.1223 93.6013C75.7292 93.155 76.8905 91.7587 77.0366 90.0975L78.1738 77.1628C78.3794 74.8244 76.5365 72.8125 74.1891 72.8125H47.1303C45.0448 72.8125 43.3093 71.2103 43.143 69.1315L42.533 61.5065C42.3468 59.179 44.1854 57.1875 46.5203 57.1875H76.2173C78.2946 57.1875 80.0263 55.5973 80.2028 53.5274L80.8798 45.5899C81.079 43.2552 79.2376 41.25 76.8943 41.25H27.4368C25.3538 41.25 23.6195 39.6515 23.45 37.5754L22.8531 30.2629C22.6629 27.9332 24.5024 25.9375 26.8398 25.9375H93.3184C95.6642 25.9375 97.5065 27.9469 97.3034 30.284L91.0762 101.911Z" fill="#8809EB"/>
</g>
<defs>
<filter id="filter0_i_89_33" x="0.362305" y="0" width="119.275" height="143.84" filterUnits="userSpaceOnUse" color-interpolation-filters="sRGB">
<feFlood flood-opacity="0" result="BackgroundImageFix"/>
<feBlend mode="normal" in="SourceGraphic" in2="BackgroundImageFix" result="shape"/>
<feColorMatrix in="SourceAlpha" type="matrix" values="0 0 0 0 0 0 0 0 0 0 0 0 0 0 0 0 0 0 127 0" result="hardAlpha"/>
<feOffset dy="4"/>
<feGaussianBlur stdDeviation="2"/>
<feComposite in2="hardAlpha" operator="arithmetic" k2="-1" k3="1"/>
<feColorMatrix type="matrix" values="0 0 0 0 0 0 0 0 0 0 0 0 0 0 0 0 0 0 0.25 0"/>
<feBlend mode="normal" in2="shape" result="effect1_innerShadow_89_33"/>
</filter>
</defs>
</svg>
