<svg width="100" height="150" viewBox="0 0 100 150" fill="none" xmlns="http://www.w3.org/2000/svg">
<path d="M75 50C81.6304 50 87.9893 47.3661 92.6777 42.6777C97.3661 37.9893 100 31.6304 100 25C100 18.3696 97.3661 12.0107 92.6777 7.32233C87.9893 2.63392 81.6304 0 75 0H25C18.3696 0 12.0108 2.63392 7.32234 7.32233C2.63393 12.0107 1.11295e-05 18.3696 1.11295e-05 25C1.11295e-05 31.6304 2.63393 37.9893 7.32234 42.6777C12.0108 47.3661 18.3696 50 25 50C18.3696 50 12.0108 52.6339 7.32234 57.3223C2.63393 62.0107 1.11295e-05 68.3696 1.11295e-05 75C1.11295e-05 81.6304 2.63393 87.9893 7.32234 92.6777C12.0108 97.3661 18.3696 100 25 100C20.0555 100 15.222 101.466 11.1108 104.213C6.99953 106.96 3.79521 110.865 1.90302 115.433C0.0108321 120.001 -0.484251 125.028 0.480379 129.877C1.44501 134.727 3.82603 139.181 7.32234 142.678C10.8187 146.174 15.2732 148.555 20.1228 149.52C24.9723 150.484 29.9989 149.989 34.5671 148.097C39.1353 146.205 43.0397 143 45.7867 138.889C48.5338 134.778 50 129.945 50 125V54C50 51.7909 51.7909 50 54 50H75Z" fill="#8809EB"/>
<path d="M75 100C88.8071 100 100 88.8071 100 75C100 61.1929 88.8071 50 75 50C61.1929 50 50 61.1929 50 75C50 88.8071 61.1929 100 75 100Z" fill="#8809EB"/>
</svg>
