<svg width="140" height="140" viewBox="0 0 140 140" fill="none" xmlns="http://www.w3.org/2000/svg">
<g filter="url(#filter0_i_89_32)">
<path d="M4 0C1.79086 0 0 1.79086 0 4V136C0 138.209 1.79086 140 4 140H136C138.209 140 140 138.209 140 136V4C140 1.79086 138.209 0 136 0H4ZM75 108.75C75 122.378 66.95 129.022 55.2969 129.022C46.5009 129.022 40.789 125.215 37.3402 120.125C36.1912 118.429 36.8936 116.188 38.6461 115.127L42.7448 112.646C44.6764 111.477 47.085 112.21 48.4075 114.04C49.798 115.964 51.4868 117.275 54.4188 117.275C58.1688 117.275 61.25 115.584 61.25 109.006V69C61.25 66.7909 63.0409 65 65.25 65H71C73.2091 65 75 66.7909 75 69V108.75ZM106.047 128.709C95.6342 128.709 88.3618 124.704 84.0554 118.807C82.804 117.093 83.5208 114.753 85.3573 113.69L89.4309 111.332C91.3112 110.244 93.6649 110.908 95.1181 112.523C97.6407 115.326 100.921 117.05 105.781 117.05C111.231 117.05 114.397 114.638 114.397 110.878C114.397 106.369 111.138 104.772 105.122 102.128L101.834 100.716C92.3406 96.6781 86.0469 91.6031 86.0469 80.8875C86.0469 71.0219 93.5625 63.8156 105.309 63.8156C112.397 63.8156 117.793 65.6818 121.908 70.8811C123.227 72.5471 122.613 74.9277 120.826 76.0766L117.33 78.3235C115.39 79.5708 112.901 78.8043 111.231 77.2131C109.6 75.6596 107.725 75 105.294 75C101.441 75 98.9969 77.4437 98.9969 80.625C98.9969 84.5719 101.441 86.1688 107.078 88.6125L110.366 90.0219C121.55 94.8156 127.847 99.7094 127.847 110.697C127.85 122.541 118.547 128.709 106.047 128.709Z" fill="#8809EB"/>
</g>
<defs>
<filter id="filter0_i_89_32" x="0" y="0" width="140" height="144" filterUnits="userSpaceOnUse" color-interpolation-filters="sRGB">
<feFlood flood-opacity="0" result="BackgroundImageFix"/>
<feBlend mode="normal" in="SourceGraphic" in2="BackgroundImageFix" result="shape"/>
<feColorMatrix in="SourceAlpha" type="matrix" values="0 0 0 0 0 0 0 0 0 0 0 0 0 0 0 0 0 0 127 0" result="hardAlpha"/>
<feOffset dy="4"/>
<feGaussianBlur stdDeviation="2"/>
<feComposite in2="hardAlpha" operator="arithmetic" k2="-1" k3="1"/>
<feColorMatrix type="matrix" values="0 0 0 0 0 0 0 0 0 0 0 0 0 0 0 0 0 0 0.25 0"/>
<feBlend mode="normal" in2="shape" result="effect1_innerShadow_89_32"/>
</filter>
</defs>
</svg>
